<svg id="Camada_1" data-name="Camada 1" xmlns="http://www.w3.org/2000/svg" xmlns:xlink="http://www.w3.org/1999/xlink" viewBox="0 0 613.84 270.64"><defs><style>.cls-1{fill:url(#Gradiente_sem_nome_6);}.cls-2{fill:url(#Gradiente_sem_nome_7);}</style><linearGradient id="Gradiente_sem_nome_6" x1="167.34" y1="167.94" x2="897.39" y2="363.56" gradientUnits="userSpaceOnUse"><stop offset="0" stop-color="#f81f01"/><stop offset="0.2" stop-color="#f81e05"/><stop offset="0.39" stop-color="#f71c10"/><stop offset="0.57" stop-color="#f51723"/><stop offset="0.75" stop-color="#f2123e"/><stop offset="0.93" stop-color="#ef0a60"/><stop offset="0.99" stop-color="#ee076e"/></linearGradient><linearGradient id="Gradiente_sem_nome_7" x1="204.43" y1="313.98" x2="840.62" y2="484.45" gradientUnits="userSpaceOnUse"><stop offset="0" stop-color="#f81f01"/><stop offset="0.33" stop-color="#f81e03"/><stop offset="0.5" stop-color="#f71d0b"/><stop offset="0.64" stop-color="#f61a19"/><stop offset="0.76" stop-color="#f4162c"/><stop offset="0.87" stop-color="#f21045"/><stop offset="0.96" stop-color="#ef0963"/><stop offset="0.99" stop-color="#ee076e"/></linearGradient></defs><path class="cls-1" d="M340.29,294v44.92H193.39V162.26H337v44.93H252v20.7h74.71v42.9H252V294Z" transform="translate(-193.39 -158.22)"/><path class="cls-1" d="M491,170.34q18.16,8.08,28,23.22t9.85,35.34q0,20.19-9.85,35.33t-28,23.22q-18.18,8.08-42.66,8.08H422.82v43.41H363.25V162.26h85.06Q472.79,162.26,491,170.34ZM462.7,244.17q6.06-5.43,6.06-15.27t-6.06-15.27q-6.06-5.43-18.17-5.43H422.82v41.39h21.71Q456.64,249.59,462.7,244.17Z" transform="translate(-193.39 -158.22)"/><path class="cls-1" d="M548.26,162.26h59.57V338.94H548.26Z" transform="translate(-193.39 -158.22)"/><path class="cls-1" d="M677.49,331.25a87.79,87.79,0,0,1-35.21-32.82q-12.75-21.07-12.74-47.83t12.74-47.83A87.7,87.7,0,0,1,677.49,170Q700,158.23,728,158.22q25.75,0,45.94,9.09a85.33,85.33,0,0,1,33.32,26.25l-37.61,33.57q-16.41-20.7-38.62-20.7-18.68,0-30,12T689.61,250.6q0,20.21,11.36,32.18t30,12q22.21,0,38.62-20.69l37.61,33.57a85.33,85.33,0,0,1-33.32,26.25Q753.72,343,728,343,699.95,343,677.49,331.25Z" transform="translate(-193.39 -158.22)"/><path class="cls-2" d="M237.07,386.74l-23.63,7.91,23.63,7.91v12.92l-39.78-14.06V387.88l39.78-14.06Z" transform="translate(-193.39 -158.22)"/><path class="cls-2" d="M253,421a35.77,35.77,0,0,1-10.57-4l5.93-13.07a38,38,0,0,0,8.73,3.53,34.9,34.9,0,0,0,9.29,1.33,14.83,14.83,0,0,0,5.46-.72,2.32,2.32,0,0,0,1.63-2.17c0-1.11-.71-1.95-2.14-2.51a48.2,48.2,0,0,0-7.06-1.82,81.26,81.26,0,0,1-10.53-2.78,18,18,0,0,1-7.33-4.86c-2.09-2.26-3.12-5.31-3.12-9.17a15.53,15.53,0,0,1,2.88-9.12,19,19,0,0,1,8.62-6.46,36.68,36.68,0,0,1,13.93-2.36,51.46,51.46,0,0,1,11,1.18,35.31,35.31,0,0,1,9.56,3.46l-5.54,13a34.64,34.64,0,0,0-15.21-3.95q-7.1,0-7.1,3.34c0,1.07.7,1.86,2.11,2.4a45.68,45.68,0,0,0,6.94,1.71A72.67,72.67,0,0,1,281,390.58a18.41,18.41,0,0,1,7.45,4.83q3.17,3.34,3.16,9.12a15.3,15.3,0,0,1-2.89,9.09,19.26,19.26,0,0,1-8.62,6.46,36,36,0,0,1-13.92,2.4A58.62,58.62,0,0,1,253,421Z" transform="translate(-193.39 -158.22)"/><path class="cls-2" d="M309.85,418.91a27.35,27.35,0,0,1-11-9.93,27.85,27.85,0,0,1,0-28.66,27.35,27.35,0,0,1,11-9.93,36.9,36.9,0,0,1,31.67,0,27.29,27.29,0,0,1,11,9.93,27.79,27.79,0,0,1,0,28.66,27.29,27.29,0,0,1-11,9.93,36.9,36.9,0,0,1-31.67,0Zm22-12.59a11.75,11.75,0,0,0,4.41-4.64,15.89,15.89,0,0,0,0-14.06,11.75,11.75,0,0,0-4.41-4.64,12.54,12.54,0,0,0-12.4,0,11.75,11.75,0,0,0-4.41,4.64,15.89,15.89,0,0,0,0,14.06,11.75,11.75,0,0,0,4.41,4.64,12.54,12.54,0,0,0,12.4,0Z" transform="translate(-193.39 -158.22)"/><path class="cls-2" d="M363.21,368h18.41v39.31h24.65v13.91H363.21Z" transform="translate(-193.39 -158.22)"/><path class="cls-2" d="M417.5,415.86q-7-6.62-7-18.55V368h18.41v28.74c0,3.9.71,6.74,2.15,8.51a8.53,8.53,0,0,0,12.4,0q2.15-2.66,2.14-8.51V368h18.1v29.27q0,11.94-7,18.55t-19.58,6.62Q424.53,422.48,417.5,415.86Z" transform="translate(-193.39 -158.22)"/><path class="cls-2" d="M483.18,382h-16V368h50.39V382h-16v39.31H483.18Z" transform="translate(-193.39 -158.22)"/><path class="cls-2" d="M522.34,368h18.41v53.22H522.34Z" transform="translate(-193.39 -158.22)"/><path class="cls-2" d="M562.44,418.91a27.29,27.29,0,0,1-11-9.93,27.79,27.79,0,0,1,0-28.66,27.29,27.29,0,0,1,11-9.93,36.9,36.9,0,0,1,31.67,0,27.29,27.29,0,0,1,11,9.93,27.79,27.79,0,0,1,0,28.66,27.29,27.29,0,0,1-11,9.93,36.9,36.9,0,0,1-31.67,0Zm22-12.59a11.75,11.75,0,0,0,4.41-4.64,15.89,15.89,0,0,0,0-14.06,11.75,11.75,0,0,0-4.41-4.64,12.54,12.54,0,0,0-12.4,0,11.82,11.82,0,0,0-4.41,4.64,16,16,0,0,0,0,14.06,11.82,11.82,0,0,0,4.41,4.64,12.54,12.54,0,0,0,12.4,0Z" transform="translate(-193.39 -158.22)"/><path class="cls-2" d="M669.62,368v53.22H654.49l-20.75-24.18v24.18h-18V368h15.14l20.75,24.18V368Z" transform="translate(-193.39 -158.22)"/><path class="cls-2" d="M685.65,421a35.77,35.77,0,0,1-10.57-4L681,403.93a38,38,0,0,0,8.73,3.53,34.9,34.9,0,0,0,9.29,1.33,14.83,14.83,0,0,0,5.46-.72,2.32,2.32,0,0,0,1.63-2.17c0-1.11-.71-1.95-2.14-2.51a48.2,48.2,0,0,0-7.06-1.82,81.26,81.26,0,0,1-10.53-2.78,18,18,0,0,1-7.33-4.86q-3.12-3.39-3.12-9.17a15.53,15.53,0,0,1,2.88-9.12,19,19,0,0,1,8.62-6.46,36.68,36.68,0,0,1,13.93-2.36,51.46,51.46,0,0,1,11,1.18,35.31,35.31,0,0,1,9.56,3.46l-5.54,13a34.64,34.64,0,0,0-15.21-3.95q-7.1,0-7.1,3.34c0,1.07.7,1.86,2.11,2.4a45.68,45.68,0,0,0,6.94,1.71,72.67,72.67,0,0,1,10.53,2.62,18.41,18.41,0,0,1,7.45,4.83q3.17,3.34,3.16,9.12a15.3,15.3,0,0,1-2.89,9.09,19.26,19.26,0,0,1-8.62,6.46,36,36,0,0,1-13.92,2.4A58.62,58.62,0,0,1,685.65,421Z" transform="translate(-193.39 -158.22)"/><path class="cls-2" d="M747.94,357.24h15.6L737.8,428.87H722.19Z" transform="translate(-193.39 -158.22)"/><path class="cls-2" d="M803.71,387.88v13.54l-39.78,14.06V402.56l23.63-7.91-23.63-7.91V373.82Z" transform="translate(-193.39 -158.22)"/></svg>